<?xml version="1.0" encoding="utf-8" standalone="no"?>
<!DOCTYPE svg PUBLIC "-//W3C//DTD SVG 1.1//EN"
  "http://www.w3.org/Graphics/SVG/1.1/DTD/svg11.dtd">
<svg xmlns:xlink="http://www.w3.org/1999/xlink" width="307.397071pt" height="297.190125pt" viewBox="0 0 307.397071 297.190125" xmlns="http://www.w3.org/2000/svg" version="1.1">
 <metadata>
  <rdf:RDF xmlns:dc="http://purl.org/dc/elements/1.1/" xmlns:cc="http://creativecommons.org/ns#" xmlns:rdf="http://www.w3.org/1999/02/22-rdf-syntax-ns#">
   <cc:Work>
    <dc:type rdf:resource="http://purl.org/dc/dcmitype/StillImage"/>
    <dc:date>2023-10-26T13:40:12.626382</dc:date>
    <dc:format>image/svg+xml</dc:format>
    <dc:creator>
     <cc:Agent>
      <dc:title>Matplotlib v3.8.0, https://matplotlib.org/</dc:title>
     </cc:Agent>
    </dc:creator>
   </cc:Work>
  </rdf:RDF>
 </metadata>
 <defs>
  <style type="text/css">*{stroke-linejoin: round; stroke-linecap: butt}</style>
 </defs>
 <g id="figure_1">
  <g id="patch_1">
   <path d="M 0 297.190125 
L 307.397071 297.190125 
L 307.397071 0 
L 0 0 
z
" style="fill: #ffffff"/>
  </g>
  <g id="axes_1">
   <g id="patch_2">
    <path d="M 38.482812 273.312 
L 300.197071 273.312 
L 300.197071 7.2 
L 38.482812 7.2 
z
" style="fill: #ffffff"/>
   </g>
   <g id="PathCollection_1">
    <defs>
     <path id="m6e2c3299a0" d="M 0 1.581139 
C 0.419323 1.581139 0.821528 1.41454 1.118034 1.118034 
C 1.41454 0.821528 1.581139 0.419323 1.581139 0 
C 1.581139 -0.419323 1.41454 -0.821528 1.118034 -1.118034 
C 0.821528 -1.41454 0.419323 -1.581139 0 -1.581139 
C -0.419323 -1.581139 -0.821528 -1.41454 -1.118034 -1.118034 
C -1.41454 -0.821528 -1.581139 -0.419323 -1.581139 0 
C -1.581139 0.419323 -1.41454 0.821528 -1.118034 1.118034 
C -0.821528 1.41454 -0.419323 1.581139 0 1.581139 
z
" style="stroke: #1f77b4"/>
    </defs>
    <g clip-path="url(#p34cd98b27b)">
     <use xlink:href="#m6e2c3299a0" x="53.113018" y="132.105448" style="fill: #1f77b4; stroke: #1f77b4"/>
     <use xlink:href="#m6e2c3299a0" x="73.806356" y="156.255703" style="fill: #1f77b4; stroke: #1f77b4"/>
     <use xlink:href="#m6e2c3299a0" x="127.385525" y="41.162969" style="fill: #1f77b4; stroke: #1f77b4"/>
     <use xlink:href="#m6e2c3299a0" x="200.119708" y="20.085842" style="fill: #1f77b4; stroke: #1f77b4"/>
     <use xlink:href="#m6e2c3299a0" x="55.909869" y="181.378827" style="fill: #1f77b4; stroke: #1f77b4"/>
     <use xlink:href="#m6e2c3299a0" x="122.654748" y="59.768581" style="fill: #1f77b4; stroke: #1f77b4"/>
     <use xlink:href="#m6e2c3299a0" x="176.672528" y="257.469485" style="fill: #1f77b4; stroke: #1f77b4"/>
     <use xlink:href="#m6e2c3299a0" x="256.556399" y="192.468282" style="fill: #1f77b4; stroke: #1f77b4"/>
     <use xlink:href="#m6e2c3299a0" x="91.809196" y="223.887193" style="fill: #1f77b4; stroke: #1f77b4"/>
     <use xlink:href="#m6e2c3299a0" x="50.378915" y="155.513985" style="fill: #1f77b4; stroke: #1f77b4"/>
     <use xlink:href="#m6e2c3299a0" x="233.552572" y="67.220828" style="fill: #1f77b4; stroke: #1f77b4"/>
     <use xlink:href="#m6e2c3299a0" x="217.606474" y="60.320717" style="fill: #1f77b4; stroke: #1f77b4"/>
     <use xlink:href="#m6e2c3299a0" x="79.718417" y="189.441474" style="fill: #1f77b4; stroke: #1f77b4"/>
     <use xlink:href="#m6e2c3299a0" x="208.372161" y="22.508954" style="fill: #1f77b4; stroke: #1f77b4"/>
     <use xlink:href="#m6e2c3299a0" x="192.453723" y="21.757033" style="fill: #1f77b4; stroke: #1f77b4"/>
     <use xlink:href="#m6e2c3299a0" x="276.309556" y="183.766714" style="fill: #1f77b4; stroke: #1f77b4"/>
     <use xlink:href="#m6e2c3299a0" x="288.300968" y="109.98933" style="fill: #1f77b4; stroke: #1f77b4"/>
     <use xlink:href="#m6e2c3299a0" x="64.260165" y="123.060108" style="fill: #1f77b4; stroke: #1f77b4"/>
     <use xlink:href="#m6e2c3299a0" x="53.385077" y="95.442257" style="fill: #1f77b4; stroke: #1f77b4"/>
     <use xlink:href="#m6e2c3299a0" x="248.079686" y="86.012885" style="fill: #1f77b4; stroke: #1f77b4"/>
     <use xlink:href="#m6e2c3299a0" x="236.238099" y="70.759869" style="fill: #1f77b4; stroke: #1f77b4"/>
     <use xlink:href="#m6e2c3299a0" x="234.317901" y="206.048017" style="fill: #1f77b4; stroke: #1f77b4"/>
     <use xlink:href="#m6e2c3299a0" x="139.654018" y="252.637713" style="fill: #1f77b4; stroke: #1f77b4"/>
     <use xlink:href="#m6e2c3299a0" x="128.224469" y="254.054452" style="fill: #1f77b4; stroke: #1f77b4"/>
     <use xlink:href="#m6e2c3299a0" x="231.840576" y="206.664587" style="fill: #1f77b4; stroke: #1f77b4"/>
     <use xlink:href="#m6e2c3299a0" x="212.83984" y="250.95118" style="fill: #1f77b4; stroke: #1f77b4"/>
     <use xlink:href="#m6e2c3299a0" x="263.146845" y="208.164703" style="fill: #1f77b4; stroke: #1f77b4"/>
     <use xlink:href="#m6e2c3299a0" x="281.730276" y="147.297686" style="fill: #1f77b4; stroke: #1f77b4"/>
     <use xlink:href="#m6e2c3299a0" x="78.592177" y="227.482751" style="fill: #1f77b4; stroke: #1f77b4"/>
     <use xlink:href="#m6e2c3299a0" x="274.728413" y="135.948118" style="fill: #1f77b4; stroke: #1f77b4"/>
     <use xlink:href="#m6e2c3299a0" x="230.015447" y="254.313892" style="fill: #1f77b4; stroke: #1f77b4"/>
     <use xlink:href="#m6e2c3299a0" x="139.080217" y="234.212839" style="fill: #1f77b4; stroke: #1f77b4"/>
     <use xlink:href="#m6e2c3299a0" x="269.511956" y="166.415622" style="fill: #1f77b4; stroke: #1f77b4"/>
     <use xlink:href="#m6e2c3299a0" x="272.311521" y="216.983876" style="fill: #1f77b4; stroke: #1f77b4"/>
     <use xlink:href="#m6e2c3299a0" x="283.599622" y="137.60999" style="fill: #1f77b4; stroke: #1f77b4"/>
     <use xlink:href="#m6e2c3299a0" x="272.827137" y="128.822862" style="fill: #1f77b4; stroke: #1f77b4"/>
     <use xlink:href="#m6e2c3299a0" x="273.333161" y="132.358741" style="fill: #1f77b4; stroke: #1f77b4"/>
     <use xlink:href="#m6e2c3299a0" x="254.78639" y="150.6148" style="fill: #1f77b4; stroke: #1f77b4"/>
     <use xlink:href="#m6e2c3299a0" x="69.193613" y="184.825293" style="fill: #1f77b4; stroke: #1f77b4"/>
     <use xlink:href="#m6e2c3299a0" x="253.548475" y="70.15272" style="fill: #1f77b4; stroke: #1f77b4"/>
     <use xlink:href="#m6e2c3299a0" x="70.99718" y="215.874664" style="fill: #1f77b4; stroke: #1f77b4"/>
     <use xlink:href="#m6e2c3299a0" x="158.602606" y="238.000716" style="fill: #1f77b4; stroke: #1f77b4"/>
     <use xlink:href="#m6e2c3299a0" x="259.430275" y="102.660692" style="fill: #1f77b4; stroke: #1f77b4"/>
     <use xlink:href="#m6e2c3299a0" x="236.178241" y="203.727204" style="fill: #1f77b4; stroke: #1f77b4"/>
     <use xlink:href="#m6e2c3299a0" x="247.848855" y="174.687737" style="fill: #1f77b4; stroke: #1f77b4"/>
     <use xlink:href="#m6e2c3299a0" x="263.436188" y="178.789797" style="fill: #1f77b4; stroke: #1f77b4"/>
     <use xlink:href="#m6e2c3299a0" x="225.822693" y="66.743216" style="fill: #1f77b4; stroke: #1f77b4"/>
     <use xlink:href="#m6e2c3299a0" x="124.792883" y="215.666529" style="fill: #1f77b4; stroke: #1f77b4"/>
     <use xlink:href="#m6e2c3299a0" x="87.40392" y="206.499798" style="fill: #1f77b4; stroke: #1f77b4"/>
     <use xlink:href="#m6e2c3299a0" x="274.52467" y="83.011869" style="fill: #1f77b4; stroke: #1f77b4"/>
     <use xlink:href="#m6e2c3299a0" x="208.786931" y="26.949925" style="fill: #1f77b4; stroke: #1f77b4"/>
     <use xlink:href="#m6e2c3299a0" x="168.749422" y="252.756956" style="fill: #1f77b4; stroke: #1f77b4"/>
     <use xlink:href="#m6e2c3299a0" x="226.674377" y="227.924247" style="fill: #1f77b4; stroke: #1f77b4"/>
     <use xlink:href="#m6e2c3299a0" x="253.779262" y="45.444614" style="fill: #1f77b4; stroke: #1f77b4"/>
     <use xlink:href="#m6e2c3299a0" x="239.228071" y="48.220246" style="fill: #1f77b4; stroke: #1f77b4"/>
     <use xlink:href="#m6e2c3299a0" x="128.469317" y="19.296" style="fill: #1f77b4; stroke: #1f77b4"/>
     <use xlink:href="#m6e2c3299a0" x="54.83748" y="99.227274" style="fill: #1f77b4; stroke: #1f77b4"/>
     <use xlink:href="#m6e2c3299a0" x="102.159365" y="208.435518" style="fill: #1f77b4; stroke: #1f77b4"/>
     <use xlink:href="#m6e2c3299a0" x="210.592427" y="234.187177" style="fill: #1f77b4; stroke: #1f77b4"/>
     <use xlink:href="#m6e2c3299a0" x="122.904159" y="45.001055" style="fill: #1f77b4; stroke: #1f77b4"/>
     <use xlink:href="#m6e2c3299a0" x="129.069519" y="242.734686" style="fill: #1f77b4; stroke: #1f77b4"/>
     <use xlink:href="#m6e2c3299a0" x="100.697446" y="223.26503" style="fill: #1f77b4; stroke: #1f77b4"/>
     <use xlink:href="#m6e2c3299a0" x="285.448446" y="192.679272" style="fill: #1f77b4; stroke: #1f77b4"/>
     <use xlink:href="#m6e2c3299a0" x="122.343917" y="242.430121" style="fill: #1f77b4; stroke: #1f77b4"/>
     <use xlink:href="#m6e2c3299a0" x="105.580886" y="242.904375" style="fill: #1f77b4; stroke: #1f77b4"/>
     <use xlink:href="#m6e2c3299a0" x="57.967694" y="137.277998" style="fill: #1f77b4; stroke: #1f77b4"/>
     <use xlink:href="#m6e2c3299a0" x="58.435195" y="161.68816" style="fill: #1f77b4; stroke: #1f77b4"/>
     <use xlink:href="#m6e2c3299a0" x="93.797449" y="61.295587" style="fill: #1f77b4; stroke: #1f77b4"/>
     <use xlink:href="#m6e2c3299a0" x="196.730984" y="43.959" style="fill: #1f77b4; stroke: #1f77b4"/>
     <use xlink:href="#m6e2c3299a0" x="121.853144" y="27.242122" style="fill: #1f77b4; stroke: #1f77b4"/>
     <use xlink:href="#m6e2c3299a0" x="111.365639" y="215.322502" style="fill: #1f77b4; stroke: #1f77b4"/>
     <use xlink:href="#m6e2c3299a0" x="287.573688" y="192.345914" style="fill: #1f77b4; stroke: #1f77b4"/>
     <use xlink:href="#m6e2c3299a0" x="70.244682" y="144.098488" style="fill: #1f77b4; stroke: #1f77b4"/>
     <use xlink:href="#m6e2c3299a0" x="224.779843" y="55.011632" style="fill: #1f77b4; stroke: #1f77b4"/>
     <use xlink:href="#m6e2c3299a0" x="255.945201" y="74.626377" style="fill: #1f77b4; stroke: #1f77b4"/>
     <use xlink:href="#m6e2c3299a0" x="151.343545" y="48.223952" style="fill: #1f77b4; stroke: #1f77b4"/>
     <use xlink:href="#m6e2c3299a0" x="68.537291" y="101.81538" style="fill: #1f77b4; stroke: #1f77b4"/>
     <use xlink:href="#m6e2c3299a0" x="139.45422" y="28.273852" style="fill: #1f77b4; stroke: #1f77b4"/>
     <use xlink:href="#m6e2c3299a0" x="259.926731" y="155.350384" style="fill: #1f77b4; stroke: #1f77b4"/>
     <use xlink:href="#m6e2c3299a0" x="204.06936" y="240.807153" style="fill: #1f77b4; stroke: #1f77b4"/>
     <use xlink:href="#m6e2c3299a0" x="258.863866" y="199.325375" style="fill: #1f77b4; stroke: #1f77b4"/>
     <use xlink:href="#m6e2c3299a0" x="113.093043" y="50.815467" style="fill: #1f77b4; stroke: #1f77b4"/>
     <use xlink:href="#m6e2c3299a0" x="124.176015" y="64.861726" style="fill: #1f77b4; stroke: #1f77b4"/>
     <use xlink:href="#m6e2c3299a0" x="51.513868" y="109.929547" style="fill: #1f77b4; stroke: #1f77b4"/>
     <use xlink:href="#m6e2c3299a0" x="190.07529" y="44.107946" style="fill: #1f77b4; stroke: #1f77b4"/>
     <use xlink:href="#m6e2c3299a0" x="252.396869" y="109.526902" style="fill: #1f77b4; stroke: #1f77b4"/>
     <use xlink:href="#m6e2c3299a0" x="70.373571" y="166.300165" style="fill: #1f77b4; stroke: #1f77b4"/>
     <use xlink:href="#m6e2c3299a0" x="233.048971" y="227.090322" style="fill: #1f77b4; stroke: #1f77b4"/>
     <use xlink:href="#m6e2c3299a0" x="214.322232" y="71.178401" style="fill: #1f77b4; stroke: #1f77b4"/>
     <use xlink:href="#m6e2c3299a0" x="143.846734" y="31.877298" style="fill: #1f77b4; stroke: #1f77b4"/>
     <use xlink:href="#m6e2c3299a0" x="248.748158" y="85.186035" style="fill: #1f77b4; stroke: #1f77b4"/>
     <use xlink:href="#m6e2c3299a0" x="213.830517" y="51.933995" style="fill: #1f77b4; stroke: #1f77b4"/>
     <use xlink:href="#m6e2c3299a0" x="127.256843" y="247.874697" style="fill: #1f77b4; stroke: #1f77b4"/>
     <use xlink:href="#m6e2c3299a0" x="258.538295" y="119.825188" style="fill: #1f77b4; stroke: #1f77b4"/>
     <use xlink:href="#m6e2c3299a0" x="267.069442" y="206.292559" style="fill: #1f77b4; stroke: #1f77b4"/>
     <use xlink:href="#m6e2c3299a0" x="247.936649" y="181.998439" style="fill: #1f77b4; stroke: #1f77b4"/>
     <use xlink:href="#m6e2c3299a0" x="200.219701" y="261.216" style="fill: #1f77b4; stroke: #1f77b4"/>
     <use xlink:href="#m6e2c3299a0" x="96.759063" y="225.893181" style="fill: #1f77b4; stroke: #1f77b4"/>
     <use xlink:href="#m6e2c3299a0" x="74.864575" y="93.763645" style="fill: #1f77b4; stroke: #1f77b4"/>
     <use xlink:href="#m6e2c3299a0" x="180.421721" y="251.807468" style="fill: #1f77b4; stroke: #1f77b4"/>
    </g>
   </g>
   <g id="PathCollection_2">
    <defs>
     <path id="m5ba30ba57c" d="M 0 1.581139 
C 0.419323 1.581139 0.821528 1.41454 1.118034 1.118034 
C 1.41454 0.821528 1.581139 0.419323 1.581139 0 
C 1.581139 -0.419323 1.41454 -0.821528 1.118034 -1.118034 
C 0.821528 -1.41454 0.419323 -1.581139 0 -1.581139 
C -0.419323 -1.581139 -0.821528 -1.41454 -1.118034 -1.118034 
C -1.41454 -0.821528 -1.581139 -0.419323 -1.581139 0 
C -1.581139 0.419323 -1.41454 0.821528 -1.118034 1.118034 
C -0.821528 1.41454 -0.419323 1.581139 0 1.581139 
z
" style="stroke: #ff7f0e"/>
    </defs>
    <g clip-path="url(#p34cd98b27b)">
     <use xlink:href="#m5ba30ba57c" x="109.009295" y="201.542971" style="fill: #ff7f0e; stroke: #ff7f0e"/>
     <use xlink:href="#m5ba30ba57c" x="181.128993" y="177.412727" style="fill: #ff7f0e; stroke: #ff7f0e"/>
     <use xlink:href="#m5ba30ba57c" x="172.345515" y="53.341651" style="fill: #ff7f0e; stroke: #ff7f0e"/>
     <use xlink:href="#m5ba30ba57c" x="197.944791" y="145.898269" style="fill: #ff7f0e; stroke: #ff7f0e"/>
     <use xlink:href="#m5ba30ba57c" x="141.024167" y="229.719138" style="fill: #ff7f0e; stroke: #ff7f0e"/>
     <use xlink:href="#m5ba30ba57c" x="205.089398" y="209.151035" style="fill: #ff7f0e; stroke: #ff7f0e"/>
     <use xlink:href="#m5ba30ba57c" x="235.685278" y="91.947771" style="fill: #ff7f0e; stroke: #ff7f0e"/>
     <use xlink:href="#m5ba30ba57c" x="190.599275" y="153.759215" style="fill: #ff7f0e; stroke: #ff7f0e"/>
     <use xlink:href="#m5ba30ba57c" x="124.428792" y="236.617508" style="fill: #ff7f0e; stroke: #ff7f0e"/>
     <use xlink:href="#m5ba30ba57c" x="221.435647" y="224.735877" style="fill: #ff7f0e; stroke: #ff7f0e"/>
     <use xlink:href="#m5ba30ba57c" x="222.346369" y="166.011047" style="fill: #ff7f0e; stroke: #ff7f0e"/>
     <use xlink:href="#m5ba30ba57c" x="258.740206" y="130.211642" style="fill: #ff7f0e; stroke: #ff7f0e"/>
     <use xlink:href="#m5ba30ba57c" x="191.867998" y="200.692884" style="fill: #ff7f0e; stroke: #ff7f0e"/>
     <use xlink:href="#m5ba30ba57c" x="147.814269" y="85.617923" style="fill: #ff7f0e; stroke: #ff7f0e"/>
     <use xlink:href="#m5ba30ba57c" x="202.984657" y="126.238208" style="fill: #ff7f0e; stroke: #ff7f0e"/>
     <use xlink:href="#m5ba30ba57c" x="250.076411" y="199.217497" style="fill: #ff7f0e; stroke: #ff7f0e"/>
     <use xlink:href="#m5ba30ba57c" x="192.052568" y="184.821719" style="fill: #ff7f0e; stroke: #ff7f0e"/>
     <use xlink:href="#m5ba30ba57c" x="265.337012" y="160.895277" style="fill: #ff7f0e; stroke: #ff7f0e"/>
     <use xlink:href="#m5ba30ba57c" x="195.042277" y="98.737824" style="fill: #ff7f0e; stroke: #ff7f0e"/>
     <use xlink:href="#m5ba30ba57c" x="245.784164" y="150.692633" style="fill: #ff7f0e; stroke: #ff7f0e"/>
     <use xlink:href="#m5ba30ba57c" x="89.363232" y="161.014718" style="fill: #ff7f0e; stroke: #ff7f0e"/>
     <use xlink:href="#m5ba30ba57c" x="108.135492" y="198.296241" style="fill: #ff7f0e; stroke: #ff7f0e"/>
     <use xlink:href="#m5ba30ba57c" x="216.753192" y="89.682409" style="fill: #ff7f0e; stroke: #ff7f0e"/>
     <use xlink:href="#m5ba30ba57c" x="230.302109" y="116.178622" style="fill: #ff7f0e; stroke: #ff7f0e"/>
     <use xlink:href="#m5ba30ba57c" x="222.592982" y="67.654127" style="fill: #ff7f0e; stroke: #ff7f0e"/>
     <use xlink:href="#m5ba30ba57c" x="194.416531" y="170.853415" style="fill: #ff7f0e; stroke: #ff7f0e"/>
     <use xlink:href="#m5ba30ba57c" x="103.338904" y="89.812324" style="fill: #ff7f0e; stroke: #ff7f0e"/>
     <use xlink:href="#m5ba30ba57c" x="148.537465" y="233.048831" style="fill: #ff7f0e; stroke: #ff7f0e"/>
     <use xlink:href="#m5ba30ba57c" x="123.049043" y="118.286082" style="fill: #ff7f0e; stroke: #ff7f0e"/>
     <use xlink:href="#m5ba30ba57c" x="171.168875" y="178.269635" style="fill: #ff7f0e; stroke: #ff7f0e"/>
     <use xlink:href="#m5ba30ba57c" x="138.165671" y="104.270664" style="fill: #ff7f0e; stroke: #ff7f0e"/>
     <use xlink:href="#m5ba30ba57c" x="71.631276" y="151.390473" style="fill: #ff7f0e; stroke: #ff7f0e"/>
     <use xlink:href="#m5ba30ba57c" x="82.039332" y="147.098841" style="fill: #ff7f0e; stroke: #ff7f0e"/>
     <use xlink:href="#m5ba30ba57c" x="229.079484" y="181.144669" style="fill: #ff7f0e; stroke: #ff7f0e"/>
     <use xlink:href="#m5ba30ba57c" x="111.90457" y="202.077999" style="fill: #ff7f0e; stroke: #ff7f0e"/>
     <use xlink:href="#m5ba30ba57c" x="201.649102" y="95.775433" style="fill: #ff7f0e; stroke: #ff7f0e"/>
     <use xlink:href="#m5ba30ba57c" x="181.890364" y="175.899938" style="fill: #ff7f0e; stroke: #ff7f0e"/>
     <use xlink:href="#m5ba30ba57c" x="82.293525" y="135.666677" style="fill: #ff7f0e; stroke: #ff7f0e"/>
     <use xlink:href="#m5ba30ba57c" x="169.513836" y="242.045024" style="fill: #ff7f0e; stroke: #ff7f0e"/>
     <use xlink:href="#m5ba30ba57c" x="90.626808" y="91.484697" style="fill: #ff7f0e; stroke: #ff7f0e"/>
     <use xlink:href="#m5ba30ba57c" x="165.170136" y="171.405431" style="fill: #ff7f0e; stroke: #ff7f0e"/>
     <use xlink:href="#m5ba30ba57c" x="224.684429" y="52.927886" style="fill: #ff7f0e; stroke: #ff7f0e"/>
     <use xlink:href="#m5ba30ba57c" x="139.045483" y="142.264473" style="fill: #ff7f0e; stroke: #ff7f0e"/>
     <use xlink:href="#m5ba30ba57c" x="132.97749" y="58.974921" style="fill: #ff7f0e; stroke: #ff7f0e"/>
     <use xlink:href="#m5ba30ba57c" x="119.912114" y="63.752113" style="fill: #ff7f0e; stroke: #ff7f0e"/>
     <use xlink:href="#m5ba30ba57c" x="182.585979" y="192.9215" style="fill: #ff7f0e; stroke: #ff7f0e"/>
     <use xlink:href="#m5ba30ba57c" x="154.654905" y="51.09899" style="fill: #ff7f0e; stroke: #ff7f0e"/>
     <use xlink:href="#m5ba30ba57c" x="146.512245" y="48.403315" style="fill: #ff7f0e; stroke: #ff7f0e"/>
     <use xlink:href="#m5ba30ba57c" x="205.524668" y="219.24406" style="fill: #ff7f0e; stroke: #ff7f0e"/>
     <use xlink:href="#m5ba30ba57c" x="235.706306" y="151.854905" style="fill: #ff7f0e; stroke: #ff7f0e"/>
     <use xlink:href="#m5ba30ba57c" x="204.813115" y="172.857082" style="fill: #ff7f0e; stroke: #ff7f0e"/>
     <use xlink:href="#m5ba30ba57c" x="129.208836" y="89.123804" style="fill: #ff7f0e; stroke: #ff7f0e"/>
     <use xlink:href="#m5ba30ba57c" x="214.799491" y="203.401378" style="fill: #ff7f0e; stroke: #ff7f0e"/>
     <use xlink:href="#m5ba30ba57c" x="66.661202" y="101.055202" style="fill: #ff7f0e; stroke: #ff7f0e"/>
     <use xlink:href="#m5ba30ba57c" x="190.627151" y="130.221175" style="fill: #ff7f0e; stroke: #ff7f0e"/>
     <use xlink:href="#m5ba30ba57c" x="124.206267" y="197.904101" style="fill: #ff7f0e; stroke: #ff7f0e"/>
     <use xlink:href="#m5ba30ba57c" x="264.705496" y="180.865313" style="fill: #ff7f0e; stroke: #ff7f0e"/>
     <use xlink:href="#m5ba30ba57c" x="176.615558" y="237.865033" style="fill: #ff7f0e; stroke: #ff7f0e"/>
     <use xlink:href="#m5ba30ba57c" x="136.121984" y="79.109216" style="fill: #ff7f0e; stroke: #ff7f0e"/>
     <use xlink:href="#m5ba30ba57c" x="203.737604" y="164.937012" style="fill: #ff7f0e; stroke: #ff7f0e"/>
     <use xlink:href="#m5ba30ba57c" x="211.074583" y="123.605887" style="fill: #ff7f0e; stroke: #ff7f0e"/>
     <use xlink:href="#m5ba30ba57c" x="67.81967" y="173.064828" style="fill: #ff7f0e; stroke: #ff7f0e"/>
     <use xlink:href="#m5ba30ba57c" x="91.776485" y="146.567562" style="fill: #ff7f0e; stroke: #ff7f0e"/>
     <use xlink:href="#m5ba30ba57c" x="73.775092" y="139.740147" style="fill: #ff7f0e; stroke: #ff7f0e"/>
     <use xlink:href="#m5ba30ba57c" x="61.757378" y="136.794784" style="fill: #ff7f0e; stroke: #ff7f0e"/>
     <use xlink:href="#m5ba30ba57c" x="255.515693" y="165.341654" style="fill: #ff7f0e; stroke: #ff7f0e"/>
     <use xlink:href="#m5ba30ba57c" x="82.854013" y="80.600141" style="fill: #ff7f0e; stroke: #ff7f0e"/>
     <use xlink:href="#m5ba30ba57c" x="124.90101" y="213.114091" style="fill: #ff7f0e; stroke: #ff7f0e"/>
     <use xlink:href="#m5ba30ba57c" x="94.767861" y="142.264137" style="fill: #ff7f0e; stroke: #ff7f0e"/>
     <use xlink:href="#m5ba30ba57c" x="102.731055" y="99.314309" style="fill: #ff7f0e; stroke: #ff7f0e"/>
     <use xlink:href="#m5ba30ba57c" x="134.95452" y="100.637701" style="fill: #ff7f0e; stroke: #ff7f0e"/>
     <use xlink:href="#m5ba30ba57c" x="263.153873" y="159.36064" style="fill: #ff7f0e; stroke: #ff7f0e"/>
     <use xlink:href="#m5ba30ba57c" x="184.528288" y="149.37775" style="fill: #ff7f0e; stroke: #ff7f0e"/>
     <use xlink:href="#m5ba30ba57c" x="136.497933" y="203.097271" style="fill: #ff7f0e; stroke: #ff7f0e"/>
     <use xlink:href="#m5ba30ba57c" x="134.275761" y="166.990967" style="fill: #ff7f0e; stroke: #ff7f0e"/>
     <use xlink:href="#m5ba30ba57c" x="182.811401" y="141.342792" style="fill: #ff7f0e; stroke: #ff7f0e"/>
     <use xlink:href="#m5ba30ba57c" x="220.185194" y="138.487806" style="fill: #ff7f0e; stroke: #ff7f0e"/>
     <use xlink:href="#m5ba30ba57c" x="171.615159" y="179.531468" style="fill: #ff7f0e; stroke: #ff7f0e"/>
     <use xlink:href="#m5ba30ba57c" x="154.836476" y="206.347402" style="fill: #ff7f0e; stroke: #ff7f0e"/>
     <use xlink:href="#m5ba30ba57c" x="132.181967" y="98.287682" style="fill: #ff7f0e; stroke: #ff7f0e"/>
     <use xlink:href="#m5ba30ba57c" x="138.705142" y="114.588932" style="fill: #ff7f0e; stroke: #ff7f0e"/>
     <use xlink:href="#m5ba30ba57c" x="195.572972" y="115.724528" style="fill: #ff7f0e; stroke: #ff7f0e"/>
     <use xlink:href="#m5ba30ba57c" x="153.747377" y="76.294765" style="fill: #ff7f0e; stroke: #ff7f0e"/>
     <use xlink:href="#m5ba30ba57c" x="213.535904" y="161.642403" style="fill: #ff7f0e; stroke: #ff7f0e"/>
     <use xlink:href="#m5ba30ba57c" x="92.156695" y="94.04916" style="fill: #ff7f0e; stroke: #ff7f0e"/>
     <use xlink:href="#m5ba30ba57c" x="252.855299" y="125.884186" style="fill: #ff7f0e; stroke: #ff7f0e"/>
     <use xlink:href="#m5ba30ba57c" x="129.698696" y="234.621902" style="fill: #ff7f0e; stroke: #ff7f0e"/>
     <use xlink:href="#m5ba30ba57c" x="195.066178" y="202.684903" style="fill: #ff7f0e; stroke: #ff7f0e"/>
     <use xlink:href="#m5ba30ba57c" x="151.073268" y="124.799863" style="fill: #ff7f0e; stroke: #ff7f0e"/>
     <use xlink:href="#m5ba30ba57c" x="248.695653" y="94.829117" style="fill: #ff7f0e; stroke: #ff7f0e"/>
     <use xlink:href="#m5ba30ba57c" x="148.768184" y="155.108597" style="fill: #ff7f0e; stroke: #ff7f0e"/>
     <use xlink:href="#m5ba30ba57c" x="60.57903" y="154.592974" style="fill: #ff7f0e; stroke: #ff7f0e"/>
     <use xlink:href="#m5ba30ba57c" x="175.504155" y="209.250741" style="fill: #ff7f0e; stroke: #ff7f0e"/>
     <use xlink:href="#m5ba30ba57c" x="185.356022" y="172.392009" style="fill: #ff7f0e; stroke: #ff7f0e"/>
     <use xlink:href="#m5ba30ba57c" x="212.041902" y="136.054229" style="fill: #ff7f0e; stroke: #ff7f0e"/>
     <use xlink:href="#m5ba30ba57c" x="177.842345" y="124.026553" style="fill: #ff7f0e; stroke: #ff7f0e"/>
     <use xlink:href="#m5ba30ba57c" x="141.906862" y="174.932539" style="fill: #ff7f0e; stroke: #ff7f0e"/>
     <use xlink:href="#m5ba30ba57c" x="183.4356" y="231.301293" style="fill: #ff7f0e; stroke: #ff7f0e"/>
     <use xlink:href="#m5ba30ba57c" x="78.157173" y="131.635802" style="fill: #ff7f0e; stroke: #ff7f0e"/>
     <use xlink:href="#m5ba30ba57c" x="168.126147" y="145.526153" style="fill: #ff7f0e; stroke: #ff7f0e"/>
    </g>
   </g>
   <g id="matplotlib.axis_1">
    <g id="xtick_1">
     <g id="line2d_1">
      <defs>
       <path id="m049f30c730" d="M 0 0 
L 0 3.5 
" style="stroke: #000000; stroke-width: 0.8"/>
      </defs>
      <g>
       <use xlink:href="#m049f30c730" x="55.839545" y="273.312" style="stroke: #000000; stroke-width: 0.8"/>
      </g>
     </g>
     <g id="text_1">
      <!-- −1.0 -->
      <g transform="translate(43.698139 287.910437) scale(0.1 -0.1)">
       <defs>
        <path id="DejaVuSans-2212" d="M 678 2272 
L 4684 2272 
L 4684 1741 
L 678 1741 
L 678 2272 
z
" transform="scale(0.015625)"/>
        <path id="DejaVuSans-31" d="M 794 531 
L 1825 531 
L 1825 4091 
L 703 3866 
L 703 4441 
L 1819 4666 
L 2450 4666 
L 2450 531 
L 3481 531 
L 3481 0 
L 794 0 
L 794 531 
z
" transform="scale(0.015625)"/>
        <path id="DejaVuSans-2e" d="M 684 794 
L 1344 794 
L 1344 0 
L 684 0 
L 684 794 
z
" transform="scale(0.015625)"/>
        <path id="DejaVuSans-30" d="M 2034 4250 
Q 1547 4250 1301 3770 
Q 1056 3291 1056 2328 
Q 1056 1369 1301 889 
Q 1547 409 2034 409 
Q 2525 409 2770 889 
Q 3016 1369 3016 2328 
Q 3016 3291 2770 3770 
Q 2525 4250 2034 4250 
z
M 2034 4750 
Q 2819 4750 3233 4129 
Q 3647 3509 3647 2328 
Q 3647 1150 3233 529 
Q 2819 -91 2034 -91 
Q 1250 -91 836 529 
Q 422 1150 422 2328 
Q 422 3509 836 4129 
Q 1250 4750 2034 4750 
z
" transform="scale(0.015625)"/>
       </defs>
       <use xlink:href="#DejaVuSans-2212"/>
       <use xlink:href="#DejaVuSans-31" x="83.789062"/>
       <use xlink:href="#DejaVuSans-2e" x="147.412109"/>
       <use xlink:href="#DejaVuSans-30" x="179.199219"/>
      </g>
     </g>
    </g>
    <g id="xtick_2">
     <g id="line2d_2">
      <g>
       <use xlink:href="#m049f30c730" x="110.220007" y="273.312" style="stroke: #000000; stroke-width: 0.8"/>
      </g>
     </g>
     <g id="text_2">
      <!-- −0.5 -->
      <g transform="translate(98.078601 287.910437) scale(0.1 -0.1)">
       <defs>
        <path id="DejaVuSans-35" d="M 691 4666 
L 3169 4666 
L 3169 4134 
L 1269 4134 
L 1269 2991 
Q 1406 3038 1543 3061 
Q 1681 3084 1819 3084 
Q 2600 3084 3056 2656 
Q 3513 2228 3513 1497 
Q 3513 744 3044 326 
Q 2575 -91 1722 -91 
Q 1428 -91 1123 -41 
Q 819 9 494 109 
L 494 744 
Q 775 591 1075 516 
Q 1375 441 1709 441 
Q 2250 441 2565 725 
Q 2881 1009 2881 1497 
Q 2881 1984 2565 2268 
Q 2250 2553 1709 2553 
Q 1456 2553 1204 2497 
Q 953 2441 691 2322 
L 691 4666 
z
" transform="scale(0.015625)"/>
       </defs>
       <use xlink:href="#DejaVuSans-2212"/>
       <use xlink:href="#DejaVuSans-30" x="83.789062"/>
       <use xlink:href="#DejaVuSans-2e" x="147.412109"/>
       <use xlink:href="#DejaVuSans-35" x="179.199219"/>
      </g>
     </g>
    </g>
    <g id="xtick_3">
     <g id="line2d_3">
      <g>
       <use xlink:href="#m049f30c730" x="164.600469" y="273.312" style="stroke: #000000; stroke-width: 0.8"/>
      </g>
     </g>
     <g id="text_3">
      <!-- 0.0 -->
      <g transform="translate(156.648906 287.910437) scale(0.1 -0.1)">
       <use xlink:href="#DejaVuSans-30"/>
       <use xlink:href="#DejaVuSans-2e" x="63.623047"/>
       <use xlink:href="#DejaVuSans-30" x="95.410156"/>
      </g>
     </g>
    </g>
    <g id="xtick_4">
     <g id="line2d_4">
      <g>
       <use xlink:href="#m049f30c730" x="218.980931" y="273.312" style="stroke: #000000; stroke-width: 0.8"/>
      </g>
     </g>
     <g id="text_4">
      <!-- 0.5 -->
      <g transform="translate(211.029368 287.910437) scale(0.1 -0.1)">
       <use xlink:href="#DejaVuSans-30"/>
       <use xlink:href="#DejaVuSans-2e" x="63.623047"/>
       <use xlink:href="#DejaVuSans-35" x="95.410156"/>
      </g>
     </g>
    </g>
    <g id="xtick_5">
     <g id="line2d_5">
      <g>
       <use xlink:href="#m049f30c730" x="273.361393" y="273.312" style="stroke: #000000; stroke-width: 0.8"/>
      </g>
     </g>
     <g id="text_5">
      <!-- 1.0 -->
      <g transform="translate(265.40983 287.910437) scale(0.1 -0.1)">
       <use xlink:href="#DejaVuSans-31"/>
       <use xlink:href="#DejaVuSans-2e" x="63.623047"/>
       <use xlink:href="#DejaVuSans-30" x="95.410156"/>
      </g>
     </g>
    </g>
   </g>
   <g id="matplotlib.axis_2">
    <g id="ytick_1">
     <g id="line2d_6">
      <defs>
       <path id="m0e7d434409" d="M 0 0 
L -3.5 0 
" style="stroke: #000000; stroke-width: 0.8"/>
      </defs>
      <g>
       <use xlink:href="#m0e7d434409" x="38.482812" y="251.117732" style="stroke: #000000; stroke-width: 0.8"/>
      </g>
     </g>
     <g id="text_6">
      <!-- −1.0 -->
      <g transform="translate(7.2 254.916951) scale(0.1 -0.1)">
       <use xlink:href="#DejaVuSans-2212"/>
       <use xlink:href="#DejaVuSans-31" x="83.789062"/>
       <use xlink:href="#DejaVuSans-2e" x="147.412109"/>
       <use xlink:href="#DejaVuSans-30" x="179.199219"/>
      </g>
     </g>
    </g>
    <g id="ytick_2">
     <g id="line2d_7">
      <g>
       <use xlink:href="#m0e7d434409" x="38.482812" y="196.73727" style="stroke: #000000; stroke-width: 0.8"/>
      </g>
     </g>
     <g id="text_7">
      <!-- −0.5 -->
      <g transform="translate(7.2 200.536489) scale(0.1 -0.1)">
       <use xlink:href="#DejaVuSans-2212"/>
       <use xlink:href="#DejaVuSans-30" x="83.789062"/>
       <use xlink:href="#DejaVuSans-2e" x="147.412109"/>
       <use xlink:href="#DejaVuSans-35" x="179.199219"/>
      </g>
     </g>
    </g>
    <g id="ytick_3">
     <g id="line2d_8">
      <g>
       <use xlink:href="#m0e7d434409" x="38.482812" y="142.356808" style="stroke: #000000; stroke-width: 0.8"/>
      </g>
     </g>
     <g id="text_8">
      <!-- 0.0 -->
      <g transform="translate(15.579687 146.156027) scale(0.1 -0.1)">
       <use xlink:href="#DejaVuSans-30"/>
       <use xlink:href="#DejaVuSans-2e" x="63.623047"/>
       <use xlink:href="#DejaVuSans-30" x="95.410156"/>
      </g>
     </g>
    </g>
    <g id="ytick_4">
     <g id="line2d_9">
      <g>
       <use xlink:href="#m0e7d434409" x="38.482812" y="87.976346" style="stroke: #000000; stroke-width: 0.8"/>
      </g>
     </g>
     <g id="text_9">
      <!-- 0.5 -->
      <g transform="translate(15.579687 91.775565) scale(0.1 -0.1)">
       <use xlink:href="#DejaVuSans-30"/>
       <use xlink:href="#DejaVuSans-2e" x="63.623047"/>
       <use xlink:href="#DejaVuSans-35" x="95.410156"/>
      </g>
     </g>
    </g>
    <g id="ytick_5">
     <g id="line2d_10">
      <g>
       <use xlink:href="#m0e7d434409" x="38.482812" y="33.595885" style="stroke: #000000; stroke-width: 0.8"/>
      </g>
     </g>
     <g id="text_10">
      <!-- 1.0 -->
      <g transform="translate(15.579687 37.395103) scale(0.1 -0.1)">
       <use xlink:href="#DejaVuSans-31"/>
       <use xlink:href="#DejaVuSans-2e" x="63.623047"/>
       <use xlink:href="#DejaVuSans-30" x="95.410156"/>
      </g>
     </g>
    </g>
   </g>
   <g id="patch_3">
    <path d="M 38.482812 273.312 
L 38.482812 7.2 
" style="fill: none; stroke: #000000; stroke-width: 0.8; stroke-linejoin: miter; stroke-linecap: square"/>
   </g>
   <g id="patch_4">
    <path d="M 300.197071 273.312 
L 300.197071 7.2 
" style="fill: none; stroke: #000000; stroke-width: 0.8; stroke-linejoin: miter; stroke-linecap: square"/>
   </g>
   <g id="patch_5">
    <path d="M 38.482813 273.312 
L 300.197071 273.312 
" style="fill: none; stroke: #000000; stroke-width: 0.8; stroke-linejoin: miter; stroke-linecap: square"/>
   </g>
   <g id="patch_6">
    <path d="M 38.482813 7.2 
L 300.197071 7.2 
" style="fill: none; stroke: #000000; stroke-width: 0.8; stroke-linejoin: miter; stroke-linecap: square"/>
   </g>
  </g>
 </g>
 <defs>
  <clipPath id="p34cd98b27b">
   <rect x="38.482812" y="7.2" width="261.714258" height="266.112"/>
  </clipPath>
 </defs>
</svg>
